<?xml version="1.0" encoding="iso-8859-1"?>
<!-- Uploaded to: SVG Repo, www.svgrepo.com, Generator: SVG Repo Mixer Tools -->
<svg height="800px" width="800px" version="1.1" id="Layer_1" xmlns="http://www.w3.org/2000/svg" xmlns:xlink="http://www.w3.org/1999/xlink" 
	 viewBox="0 0 512.001 512.001" xml:space="preserve">
<path style="fill:#AA8B65;" d="M330.683,260.827H208.014c-17.462,0-31.621,14.412-31.206,31.967
	c0.402,17.042,14.746,30.465,31.792,30.465h99.958c33.895,0,61.431,27.74,61.102,61.709c-0.326,33.64-28.24,60.502-61.881,60.502
	h-42.487c-0.139,0-0.28,0.001-0.418,0.003c-16.325,0.215-23.665,20.748-11.182,31.273c10.027,8.456,16.397,21.111,16.397,35.254
	h-46.097h-24.054H170.92c0-18.317,10.686-34.13,26.161-41.563c4.632-2.225,8.162-6.211,9.627-11.137
	c7.506-25.252,30.927-43.722,58.583-43.722h17.647c17.463,0,31.622-14.413,31.206-31.967c-0.403-17.041-14.746-30.463-31.792-30.463
	h-74.338c-33.895,0-61.432-27.74-61.102-61.709c0.079-8.094,1.768-15.79,4.737-22.819l-68.855-30.493l26.933-24.518l42.738,22.684
	l17.896,7.925c10.603-8.317,23.986-13.282,38.433-13.282h40.284l-43.958-45.45l44.843,3.372l23.937,24.75l22.447-23.209h41.582
	l-11.108,11.485l-28.096,29.05h43.296L330.683,260.827z"/>
<g>
	<path style="fill:#836948;" d="M208.563,353.147h74.338c2.569,0,5.075,0.31,7.483,0.886c-3.176-14.082-16.066-24.453-31.049-24.453
		h-74.338c-10.8,0-20.948-2.826-29.76-7.763C165.704,340.492,185.677,353.147,208.563,353.147z"/>
	<path style="fill:#836948;" d="M338.319,331.021c5.035,8.981,7.882,19.347,7.775,30.379c-0.326,33.64-28.24,60.502-61.881,60.502
		h-42.487c-0.139,0-0.28,0.001-0.418,0.003c-1.426,0.019-2.778,0.201-4.059,0.509c-3.34,1.733-6.5,3.765-9.445,6.062
		c-5.526,6.978-5.726,17.917,2.321,24.702c10.027,8.456,16.397,21.111,16.397,35.255h-46.097h-23.028
		c-4.113,6.895-6.476,14.953-6.476,23.566h29.016h24.054h46.097c0-14.144-6.37-26.799-16.397-35.255
		c-12.481-10.525-5.143-31.058,11.182-31.273c0.139-0.002,0.279-0.002,0.418-0.002h42.487c33.642,0,61.555-26.863,61.881-60.502
		C369.884,361.821,357.165,341.577,338.319,331.021z"/>
	<polygon style="fill:#836948;" points="250.018,188.86 205.174,185.486 226.077,207.1 267.659,207.1 	"/>
	<polygon style="fill:#836948;" points="326.874,201.886 337.983,190.401 296.401,190.401 280.251,207.1 321.832,207.1 	"/>
</g>
<g>
	<path style="fill:#3EAC92;" d="M201.948,471.255c0,0-8.276-54.195-80.344-55.919C121.604,415.336,129.19,488.554,201.948,471.255z"
		/>
	<path style="fill:#3EAC92;" d="M369.663,373.257c0,0,26.396,19.403,57.577-10.32C427.239,362.937,393.096,335.205,369.663,373.257z
		"/>
	<path style="fill:#3EAC92;" d="M162.017,190.259c8.894,13.644,14.061,29.938,14.061,47.439H2.1
		c0-48.043,38.946-86.989,86.989-86.989L162.017,190.259z"/>
</g>
<path style="fill:#7CD8A4;" d="M375.676,190.264H82.711C82.711,85.184,167.895,0,272.974,0s190.264,85.184,190.264,190.264H375.676z
	"/>
<path style="opacity:0.42;fill:#328777;enable-background:new    ;" d="M348.818,15.732c25.97,23.561,45.401,54.199,55.247,88.871
	c7.417,26.116-12.214,52.081-39.362,52.081h-40.984H85.666c-1.941,10.901-2.955,22.122-2.955,33.58h292.965h87.562
	C463.238,112.145,416.152,45.033,348.818,15.732z"/>
<g>
	<path style="fill:#3EAC92;" d="M189.731,114.776c-10.051,17.771-34.288,23.077-34.288,23.077s-7.94-23.506,2.111-41.277
		c10.051-17.771,34.288-23.077,34.288-23.077S199.784,97.005,189.731,114.776z"/>
	<path style="fill:#3EAC92;" d="M290.375,105.185c0.542,26.166-22.707,47.869-22.707,47.869s-24.128-20.721-24.671-46.886
		c-0.542-26.166,22.707-47.869,22.707-47.869S289.832,79.019,290.375,105.185z"/>
	<path style="fill:#3EAC92;" d="M386.662,98.416c8.019,18.776-2.48,41.256-2.48,41.256s-23.499-7.961-31.517-26.738
		s2.48-41.256,2.48-41.256S378.643,79.64,386.662,98.416z"/>
</g>
<path style="fill:#328777;" d="M328.505,272.282c0-52.875,40.607-95.738,90.698-95.738s90.698,42.864,90.698,95.738H328.505z"/>
<path style="fill:#266659;" d="M446.702,181.029c10.899,9.474,19.667,21.58,25.431,35.398c7.649,18.338-5.991,38.541-25.861,38.541
	H329.988c-0.972,5.616-1.483,11.401-1.483,17.313H509.9C509.9,229.528,483.348,193.324,446.702,181.029z"/>
</svg>