<?xml version="1.0" encoding="iso-8859-1"?>
<!-- Uploaded to: SVG Repo, www.svgrepo.com, Generator: SVG Repo Mixer Tools -->
<svg height="800px" width="800px" version="1.1" id="Layer_1" xmlns="http://www.w3.org/2000/svg" xmlns:xlink="http://www.w3.org/1999/xlink" 
	 viewBox="0 0 512 512" xml:space="preserve">
<path style="fill:#7CD8A4;" d="M249.34,283.89c0,0-23.243-85.412-164.164-101.343c0,0,27.908,64.031,59.769,89.153
	C210.1,323.072,249.34,283.89,249.34,283.89z"/>
<path style="opacity:0.35;fill:#3EAC92;enable-background:new    ;" d="M144.945,250.612c-19.621-15.47-37.74-45.693-48.767-66.635
	c-3.59-0.52-7.245-1.004-11.002-1.428c0,0,27.908,64.032,59.769,89.153c65.155,51.371,104.395,12.191,104.395,12.191
	s-1.726-6.317-7.056-15.827C228.253,276.677,193.922,289.228,144.945,250.612z"/>
<path style="fill:#7CD8A4;" d="M249.34,162.451c0,0-14.705-96.297-142.759-99.36C106.581,63.091,120.061,193.189,249.34,162.451z"/>
<path style="opacity:0.35;fill:#3EAC92;enable-background:new    ;" d="M111.387,63.262c-1.588-0.068-3.182-0.133-4.805-0.171
	c0,0,13.479,130.098,142.759,99.36c0,0-1.305-8.535-6.513-20.602C153.005,159.999,121.736,98.135,111.387,63.262z"/>
<path style="fill:#7CD8A4;" d="M249.34,431.001c0,0-14.705-96.297-142.759-99.36C106.581,331.64,120.061,461.738,249.34,431.001z"/>
<g>
	<path style="opacity:0.35;fill:#3EAC92;enable-background:new    ;" d="M111.503,331.816c-1.626-0.071-3.258-0.136-4.923-0.176
		c0,0,13.479,130.098,142.759,99.36c0,0-1.334-8.702-6.667-20.952C153.295,428.031,121.959,366.735,111.503,331.816z"/>
	<path style="fill:#3EAC92;" d="M272.724,512H251.69c-1.298,0-2.35-1.052-2.35-2.35V3.576c0-1.975,1.601-3.576,3.576-3.576h18.582
		c1.975,0,3.576,1.601,3.576,3.576V509.65C275.074,510.948,274.021,512,272.724,512z"/>
</g>
<path style="fill:#7CD8A4;" d="M275.074,140.903c0,0,10.829-85.27,151.751-101.199c0,0-15.495,63.889-47.356,89.01
	C314.315,180.085,275.074,140.903,275.074,140.903z"/>
<path style="opacity:0.35;fill:#3EAC92;enable-background:new    ;" d="M379.468,111.715
	c-53.057,41.834-88.927,23.619-100.419,15.413c-3.284,8.356-3.976,13.776-3.976,13.776s39.241,39.182,104.395-12.19
	c31.86-25.12,47.356-89.01,47.356-89.01c-1.774,0.201-3.514,0.42-5.247,0.643C414.609,61.15,400.661,95.006,379.468,111.715z"/>
<path style="fill:#7CD8A4;" d="M275.074,275.506c0,0,14.705-96.297,142.759-99.36C417.833,176.146,404.354,306.244,275.074,275.506z
	"/>
<path style="opacity:0.35;fill:#3EAC92;enable-background:new    ;" d="M279.36,260.445c-3.369,9.057-4.286,15.062-4.286,15.062
	c129.28,30.738,142.759-99.36,142.759-99.36c-1.06,0.025-2.09,0.074-3.134,0.112C406.222,209.584,376.45,281.265,279.36,260.445z"/>
<path style="fill:#7CD8A4;" d="M275.074,414.999c0,0,14.705-96.297,142.759-99.36C417.833,315.639,404.354,445.737,275.074,414.999z
	"/>
<g>
	<path style="fill:#3EAC92;" d="M257.019,176.408c-1.394,0-2.805-0.371-4.08-1.153l-54.748-33.481
		c-3.693-2.258-4.856-7.081-2.598-10.775c2.258-3.693,7.082-4.856,10.774-2.597l54.748,33.481c3.693,2.258,4.856,7.081,2.598,10.775
		C262.235,175.075,259.658,176.408,257.019,176.408z"/>
	<path style="fill:#3EAC92;" d="M257.141,443.537c-1.337,0-2.693-0.342-3.932-1.064l-54.871-31.901
		c-3.742-2.174-5.011-6.972-2.836-10.713c2.175-3.742,6.974-5.013,10.713-2.836l54.871,31.901c3.742,2.174,5.011,6.972,2.836,10.713
		C262.468,442.14,259.841,443.537,257.141,443.537z"/>
	<path style="fill:#3EAC92;" d="M265.561,424.776c-2.7,0-5.327-1.396-6.782-3.898c-2.175-3.742-0.906-8.539,2.836-10.713
		l59.134-34.379c3.739-2.175,8.539-0.908,10.713,2.836c2.175,3.742,0.906,8.539-2.836,10.713l-59.134,34.379
		C268.253,424.433,266.898,424.776,265.561,424.776z"/>
	<path style="fill:#3EAC92;" d="M257.025,295.86c-0.949,0-1.914-0.173-2.852-0.54l-58.976-23.059
		c-4.031-1.577-6.022-6.121-4.445-10.153c1.576-4.029,6.121-6.021,10.152-4.445l58.976,23.059c4.031,1.577,6.022,6.121,4.445,10.153
		C263.116,293.968,260.158,295.86,257.025,295.86z"/>
	<path style="fill:#3EAC92;" d="M268.179,283.445c-2.7,0-5.327-1.396-6.782-3.899c-2.175-3.742-0.906-8.539,2.836-10.713
		l56.516-32.857c3.739-2.174,8.539-0.908,10.713,2.836c2.175,3.742,0.906,8.539-2.836,10.713l-56.516,32.857
		C270.871,283.103,269.516,283.445,268.179,283.445z"/>
	<path style="fill:#3EAC92;" d="M268.122,153.897c-2.774,0-5.463-1.475-6.885-4.081c-2.074-3.799-0.676-8.56,3.122-10.635
		l59.16-32.304c3.802-2.076,8.56-0.675,10.635,3.122c2.073,3.799,0.675,8.56-3.122,10.635l-59.161,32.304
		C270.679,153.589,269.39,153.897,268.122,153.897z"/>
	<path style="opacity:0.35;fill:#3EAC92;enable-background:new    ;" d="M279.36,399.938c-3.369,9.057-4.286,15.062-4.286,15.062
		c129.28,30.738,142.759-99.36,142.759-99.36c-1.06,0.025-2.09,0.074-3.134,0.112C406.222,349.076,376.45,420.757,279.36,399.938z"
		/>
</g>
</svg>